<svg width="18" height="18" viewBox="0 0 18 18" fill="none" xmlns="http://www.w3.org/2000/svg">
<path d="M0.650024 0.649902H2.31669L4.53336 10.9999C4.61467 11.379 4.82558 11.7178 5.12978 11.9581C5.43398 12.1984 5.81245 12.3252 6.20002 12.3166H14.35C14.7293 12.316 15.0971 12.186 15.3925 11.9481C15.688 11.7102 15.8935 11.3787 15.975 11.0082L17.35 4.81657H3.20836M6.44169 16.4416C6.44169 16.9018 6.06859 17.2749 5.60836 17.2749C5.14812 17.2749 4.77502 16.9018 4.77502 16.4416C4.77502 15.9813 5.14812 15.6082 5.60836 15.6082C6.06859 15.6082 6.44169 15.9813 6.44169 16.4416ZM15.6084 16.4416C15.6084 16.9018 15.2353 17.2749 14.775 17.2749C14.3148 17.2749 13.9417 16.9018 13.9417 16.4416C13.9417 15.9813 14.3148 15.6082 14.775 15.6082C15.2353 15.6082 15.6084 15.9813 15.6084 16.4416Z" stroke="#4D515B" stroke-width="1.3" stroke-linecap="round" stroke-linejoin="round"/>
</svg>
