<svg width="24" height="24" viewBox="0 0 24 24" fill="none" xmlns="http://www.w3.org/2000/svg">
<path d="M12 5.99989V11.9999L13.56 12.7799M13.227 21.9249C11.1979 22.1758 9.14057 21.7988 7.33233 20.8445C5.5241 19.8902 4.05183 18.4046 3.11391 16.5878C2.17599 14.7711 1.81749 12.7105 2.08672 10.6837C2.35595 8.6569 3.23998 6.76135 4.61967 5.25245C5.99937 3.74355 7.80843 2.69383 9.80308 2.24472C11.7977 1.79561 13.8821 1.96871 15.7754 2.74069C17.6686 3.51267 19.2797 4.84642 20.3916 6.56224C21.5035 8.27805 22.0628 10.2935 21.994 12.3369M14 17.9999L18 13.9999M18 13.9999L22 17.9999M18 13.9999V21.9999" stroke="#435B71" stroke-width="2" stroke-linecap="round" stroke-linejoin="round"/>
</svg>
