<svg width="17" height="18" viewBox="0 0 17 18" fill="none" xmlns="http://www.w3.org/2000/svg">
<path d="M10.65 16.4828V9.81613C10.65 9.59512 10.5622 9.38316 10.4059 9.22688C10.2497 9.0706 10.0377 8.9828 9.81669 8.9828H6.48336C6.26234 8.9828 6.05038 9.0706 5.8941 9.22688C5.73782 9.38316 5.65002 9.59512 5.65002 9.81613V16.4828M0.650024 7.31613C0.649966 7.07369 0.702803 6.83415 0.804848 6.61423C0.906892 6.39431 1.05569 6.1993 1.24086 6.0428L7.07419 1.04364C7.37501 0.789393 7.75615 0.649902 8.15002 0.649902C8.54389 0.649902 8.92504 0.789393 9.22586 1.04364L15.0592 6.0428C15.2444 6.1993 15.3932 6.39431 15.4952 6.61423C15.5972 6.83415 15.6501 7.07369 15.65 7.31613V14.8161C15.65 15.2582 15.4744 15.6821 15.1619 15.9946C14.8493 16.3072 14.4254 16.4828 13.9834 16.4828H2.31669C1.87466 16.4828 1.45074 16.3072 1.13818 15.9946C0.825619 15.6821 0.650024 15.2582 0.650024 14.8161V7.31613Z" stroke="#EC441E" stroke-width="1.3" stroke-linecap="round" stroke-linejoin="round"/>
</svg>
