<svg width="17" height="18" viewBox="0 0 17 18" fill="none" xmlns="http://www.w3.org/2000/svg">
<path d="M11.4834 0.649902V2.31657M3.98336 17.3166V15.6499C3.98336 15.2079 4.15895 14.784 4.47151 14.4714C4.78407 14.1588 5.208 13.9832 5.65002 13.9832H10.65C11.0921 13.9832 11.516 14.1588 11.8285 14.4714C12.1411 14.784 12.3167 15.2079 12.3167 15.6499V17.3166M4.81669 0.649902V2.31657M10.65 8.1499C10.65 9.53061 9.53074 10.6499 8.15002 10.6499C6.76931 10.6499 5.65002 9.53061 5.65002 8.1499C5.65002 6.76919 6.76931 5.6499 8.15002 5.6499C9.53074 5.6499 10.65 6.76919 10.65 8.1499ZM2.31669 2.31657H13.9834C14.9038 2.31657 15.65 3.06276 15.65 3.98324V15.6499C15.65 16.5704 14.9038 17.3166 13.9834 17.3166H2.31669C1.39622 17.3166 0.650024 16.5704 0.650024 15.6499V3.98324C0.650024 3.06276 1.39622 2.31657 2.31669 2.31657Z" stroke="#4D515B" stroke-width="1.3" stroke-linecap="round" stroke-linejoin="round"/>
</svg>
