<svg width="22" height="16" viewBox="0 0 22 16" fill="none" xmlns="http://www.w3.org/2000/svg">
<path d="M5.15002 5.6499C5.42617 5.6499 5.65002 5.42604 5.65002 5.1499C5.65002 4.87376 5.42617 4.6499 5.15002 4.6499C4.87388 4.6499 4.65002 4.87376 4.65002 5.1499C4.65002 5.42604 4.87388 5.6499 5.15002 5.6499Z" fill="#435B71"/>
<path d="M13.65 0.649902L19.95 6.9499C20.1738 7.17287 20.3513 7.43781 20.4724 7.72954C20.5936 8.02126 20.6559 8.33403 20.6559 8.6499C20.6559 8.96578 20.5936 9.27854 20.4724 9.57027C20.3513 9.86199 20.1738 10.1269 19.95 10.3499L15.65 14.6499M8.23602 1.2359C7.86104 0.860804 7.35241 0.650016 6.82202 0.649902H1.65002C1.38481 0.649902 1.13045 0.755259 0.942918 0.942796C0.755381 1.13033 0.650024 1.38469 0.650024 1.6499V6.8219C0.650138 7.35229 0.860926 7.86092 1.23602 8.2359L6.94002 13.9399C7.39454 14.3915 8.00927 14.645 8.65002 14.645C9.29078 14.645 9.90551 14.3915 10.36 13.9399L13.94 10.3599C14.3917 9.90539 14.6452 9.29066 14.6452 8.6499C14.6452 8.00915 14.3917 7.39442 13.94 6.9399L8.23602 1.2359ZM5.65002 5.1499C5.65002 5.42604 5.42617 5.6499 5.15002 5.6499C4.87388 5.6499 4.65002 5.42604 4.65002 5.1499C4.65002 4.87376 4.87388 4.6499 5.15002 4.6499C5.42617 4.6499 5.65002 4.87376 5.65002 5.1499Z" stroke="#4D515B" stroke-width="1.3" stroke-linecap="round" stroke-linejoin="round"/>
</svg>
