<svg width="16" height="16" viewBox="0 0 16 16" fill="none" xmlns="http://www.w3.org/2000/svg">
<path d="M12.0233 10.9628L15.2355 14.1742L14.1742 15.2355L10.9628 12.0233C9.7678 12.9812 8.2815 13.5022 6.75 13.5C3.024 13.5 0 10.476 0 6.75C0 3.024 3.024 0 6.75 0C10.476 0 13.5 3.024 13.5 6.75C13.5022 8.2815 12.9812 9.7678 12.0233 10.9628ZM10.5187 10.4062C11.4706 9.42741 12.0022 8.11532 12 6.75C12 3.84975 9.65025 1.5 6.75 1.5C3.84975 1.5 1.5 3.84975 1.5 6.75C1.5 9.65025 3.84975 12 6.75 12C8.11532 12.0022 9.42741 11.4706 10.4062 10.5187L10.5187 10.4062Z" fill="#878787"/>
</svg>
